<mxfile host="Electron" modified="2023-05-28T16:38:47.088Z" agent="Mozilla/5.0 (Windows NT 10.0; Win64; x64) AppleWebKit/537.36 (KHTML, like Gecko) draw.io/21.1.2 Chrome/106.0.5249.199 Electron/21.4.3 Safari/537.36" etag="QAcQd1DXTCW-C1iefMR9" version="21.1.2" type="device">
  <diagram name="Page-1" id="3E3Xyk43YIrzX9BX_ayX">
    <mxGraphModel dx="1221" dy="831" grid="1" gridSize="10" guides="1" tooltips="1" connect="1" arrows="1" fold="1" page="1" pageScale="1" pageWidth="850" pageHeight="1100" math="0" shadow="0">
      <root>
        <mxCell id="0" />
        <mxCell id="1" parent="0" />
        <mxCell id="nSw_Z0AjLRBM3idTYw_I-1" value="Subject" style="swimlane;fontStyle=1;align=center;verticalAlign=top;childLayout=stackLayout;horizontal=1;startSize=26;horizontalStack=0;resizeParent=1;resizeParentMax=0;resizeLast=0;collapsible=1;marginBottom=0;" parent="1" vertex="1">
          <mxGeometry x="70" y="110" width="190" height="110" as="geometry" />
        </mxCell>
        <mxCell id="nSw_Z0AjLRBM3idTYw_I-2" value="- observers: List of Observer" style="text;strokeColor=none;fillColor=none;align=left;verticalAlign=top;spacingLeft=4;spacingRight=4;overflow=hidden;rotatable=0;points=[[0,0.5],[1,0.5]];portConstraint=eastwest;" parent="nSw_Z0AjLRBM3idTYw_I-1" vertex="1">
          <mxGeometry y="26" width="190" height="26" as="geometry" />
        </mxCell>
        <mxCell id="nSw_Z0AjLRBM3idTYw_I-3" value="" style="line;strokeWidth=1;fillColor=none;align=left;verticalAlign=middle;spacingTop=-1;spacingLeft=3;spacingRight=3;rotatable=0;labelPosition=right;points=[];portConstraint=eastwest;strokeColor=inherit;" parent="nSw_Z0AjLRBM3idTYw_I-1" vertex="1">
          <mxGeometry y="52" width="190" height="8" as="geometry" />
        </mxCell>
        <mxCell id="nSw_Z0AjLRBM3idTYw_I-4" value="+ attach(Observer)&#xa;+ detach (Observer)&#xa;+ notify()" style="text;strokeColor=none;fillColor=none;align=left;verticalAlign=top;spacingLeft=4;spacingRight=4;overflow=hidden;rotatable=0;points=[[0,0.5],[1,0.5]];portConstraint=eastwest;" parent="nSw_Z0AjLRBM3idTYw_I-1" vertex="1">
          <mxGeometry y="60" width="190" height="50" as="geometry" />
        </mxCell>
        <mxCell id="nSw_Z0AjLRBM3idTYw_I-5" value="Observer" style="swimlane;fontStyle=3;align=center;verticalAlign=top;childLayout=stackLayout;horizontal=1;startSize=26;horizontalStack=0;resizeParent=1;resizeParentMax=0;resizeLast=0;collapsible=1;marginBottom=0;" parent="1" vertex="1">
          <mxGeometry x="360" y="110" width="160" height="60" as="geometry" />
        </mxCell>
        <mxCell id="nSw_Z0AjLRBM3idTYw_I-7" value="" style="line;strokeWidth=1;fillColor=none;align=left;verticalAlign=middle;spacingTop=-1;spacingLeft=3;spacingRight=3;rotatable=0;labelPosition=right;points=[];portConstraint=eastwest;strokeColor=inherit;" parent="nSw_Z0AjLRBM3idTYw_I-5" vertex="1">
          <mxGeometry y="26" width="160" height="8" as="geometry" />
        </mxCell>
        <mxCell id="nSw_Z0AjLRBM3idTYw_I-8" value="+ update(Subject)" style="text;strokeColor=none;fillColor=none;align=left;verticalAlign=top;spacingLeft=4;spacingRight=4;overflow=hidden;rotatable=0;points=[[0,0.5],[1,0.5]];portConstraint=eastwest;fontStyle=2" parent="nSw_Z0AjLRBM3idTYw_I-5" vertex="1">
          <mxGeometry y="34" width="160" height="26" as="geometry" />
        </mxCell>
        <mxCell id="nSw_Z0AjLRBM3idTYw_I-13" style="edgeStyle=orthogonalEdgeStyle;rounded=0;orthogonalLoop=1;jettySize=auto;html=1;entryX=0.421;entryY=1;entryDx=0;entryDy=0;entryPerimeter=0;endArrow=block;endFill=0;endSize=16;" parent="1" source="nSw_Z0AjLRBM3idTYw_I-9" target="nSw_Z0AjLRBM3idTYw_I-4" edge="1">
          <mxGeometry relative="1" as="geometry" />
        </mxCell>
        <mxCell id="nSw_Z0AjLRBM3idTYw_I-9" value="Timer" style="swimlane;fontStyle=1;align=center;verticalAlign=top;childLayout=stackLayout;horizontal=1;startSize=26;horizontalStack=0;resizeParent=1;resizeParentMax=0;resizeLast=0;collapsible=1;marginBottom=0;" parent="1" vertex="1">
          <mxGeometry x="70" y="290" width="160" height="60" as="geometry" />
        </mxCell>
        <mxCell id="nSw_Z0AjLRBM3idTYw_I-11" value="" style="line;strokeWidth=1;fillColor=none;align=left;verticalAlign=middle;spacingTop=-1;spacingLeft=3;spacingRight=3;rotatable=0;labelPosition=right;points=[];portConstraint=eastwest;strokeColor=inherit;" parent="nSw_Z0AjLRBM3idTYw_I-9" vertex="1">
          <mxGeometry y="26" width="160" height="8" as="geometry" />
        </mxCell>
        <mxCell id="nSw_Z0AjLRBM3idTYw_I-12" value="+ tick()" style="text;strokeColor=none;fillColor=none;align=left;verticalAlign=top;spacingLeft=4;spacingRight=4;overflow=hidden;rotatable=0;points=[[0,0.5],[1,0.5]];portConstraint=eastwest;" parent="nSw_Z0AjLRBM3idTYw_I-9" vertex="1">
          <mxGeometry y="34" width="160" height="26" as="geometry" />
        </mxCell>
        <mxCell id="nSw_Z0AjLRBM3idTYw_I-22" style="edgeStyle=orthogonalEdgeStyle;rounded=0;orthogonalLoop=1;jettySize=auto;html=1;entryX=0.383;entryY=0.962;entryDx=0;entryDy=0;entryPerimeter=0;endArrow=block;endFill=0;endSize=16;" parent="1" source="nSw_Z0AjLRBM3idTYw_I-14" target="nSw_Z0AjLRBM3idTYw_I-8" edge="1">
          <mxGeometry relative="1" as="geometry" />
        </mxCell>
        <mxCell id="nSw_Z0AjLRBM3idTYw_I-14" value="DigitalClock" style="swimlane;fontStyle=1;align=center;verticalAlign=top;childLayout=stackLayout;horizontal=1;startSize=26;horizontalStack=0;resizeParent=1;resizeParentMax=0;resizeLast=0;collapsible=1;marginBottom=0;" parent="1" vertex="1">
          <mxGeometry x="265" y="250" width="160" height="70" as="geometry" />
        </mxCell>
        <mxCell id="nSw_Z0AjLRBM3idTYw_I-16" value="" style="line;strokeWidth=1;fillColor=none;align=left;verticalAlign=middle;spacingTop=-1;spacingLeft=3;spacingRight=3;rotatable=0;labelPosition=right;points=[];portConstraint=eastwest;strokeColor=inherit;" parent="nSw_Z0AjLRBM3idTYw_I-14" vertex="1">
          <mxGeometry y="26" width="160" height="8" as="geometry" />
        </mxCell>
        <mxCell id="nSw_Z0AjLRBM3idTYw_I-17" value="+ update(Subject)&#xa;+ draw()" style="text;strokeColor=none;fillColor=none;align=left;verticalAlign=top;spacingLeft=4;spacingRight=4;overflow=hidden;rotatable=0;points=[[0,0.5],[1,0.5]];portConstraint=eastwest;" parent="nSw_Z0AjLRBM3idTYw_I-14" vertex="1">
          <mxGeometry y="34" width="160" height="36" as="geometry" />
        </mxCell>
        <mxCell id="nSw_Z0AjLRBM3idTYw_I-23" style="edgeStyle=orthogonalEdgeStyle;rounded=0;orthogonalLoop=1;jettySize=auto;html=1;entryX=0.75;entryY=1;entryDx=0;entryDy=0;entryPerimeter=0;endArrow=block;endFill=0;endSize=16;" parent="1" source="nSw_Z0AjLRBM3idTYw_I-18" target="nSw_Z0AjLRBM3idTYw_I-8" edge="1">
          <mxGeometry relative="1" as="geometry" />
        </mxCell>
        <mxCell id="nSw_Z0AjLRBM3idTYw_I-18" value="AnalogCLock" style="swimlane;fontStyle=1;align=center;verticalAlign=top;childLayout=stackLayout;horizontal=1;startSize=26;horizontalStack=0;resizeParent=1;resizeParentMax=0;resizeLast=0;collapsible=1;marginBottom=0;" parent="1" vertex="1">
          <mxGeometry x="480" y="250" width="160" height="70" as="geometry" />
        </mxCell>
        <mxCell id="nSw_Z0AjLRBM3idTYw_I-19" value="" style="line;strokeWidth=1;fillColor=none;align=left;verticalAlign=middle;spacingTop=-1;spacingLeft=3;spacingRight=3;rotatable=0;labelPosition=right;points=[];portConstraint=eastwest;strokeColor=inherit;" parent="nSw_Z0AjLRBM3idTYw_I-18" vertex="1">
          <mxGeometry y="26" width="160" height="8" as="geometry" />
        </mxCell>
        <mxCell id="nSw_Z0AjLRBM3idTYw_I-20" value="+ update(Subject)&#xa;+ draw()" style="text;strokeColor=none;fillColor=none;align=left;verticalAlign=top;spacingLeft=4;spacingRight=4;overflow=hidden;rotatable=0;points=[[0,0.5],[1,0.5]];portConstraint=eastwest;" parent="nSw_Z0AjLRBM3idTYw_I-18" vertex="1">
          <mxGeometry y="34" width="160" height="36" as="geometry" />
        </mxCell>
        <mxCell id="nSw_Z0AjLRBM3idTYw_I-24" style="edgeStyle=orthogonalEdgeStyle;rounded=0;orthogonalLoop=1;jettySize=auto;html=1;entryX=1;entryY=0.808;entryDx=0;entryDy=0;entryPerimeter=0;endArrow=diamondThin;endFill=0;startSize=26;endSize=26;" parent="1" edge="1">
          <mxGeometry relative="1" as="geometry">
            <mxPoint x="360" y="140.00800000000004" as="sourcePoint" />
            <mxPoint x="260" y="140.00800000000004" as="targetPoint" />
          </mxGeometry>
        </mxCell>
        <mxCell id="nSw_Z0AjLRBM3idTYw_I-26" value="" style="endArrow=classic;html=1;rounded=0;dashed=1;strokeWidth=1;startSize=26;endSize=10;strokeColor=default;" parent="1" edge="1">
          <mxGeometry width="50" height="50" relative="1" as="geometry">
            <mxPoint x="360" y="160" as="sourcePoint" />
            <mxPoint x="255" y="160" as="targetPoint" />
            <Array as="points" />
          </mxGeometry>
        </mxCell>
        <mxCell id="nSw_Z0AjLRBM3idTYw_I-27" value="" style="group" parent="1" vertex="1" connectable="0">
          <mxGeometry x="50" y="400" width="230" height="100" as="geometry" />
        </mxCell>
        <mxCell id="nSw_Z0AjLRBM3idTYw_I-28" value="" style="shape=note;whiteSpace=wrap;html=1;backgroundOutline=1;darkOpacity=0.05;fillColor=#f5f5f5;fontColor=#333333;strokeColor=#666666;" parent="nSw_Z0AjLRBM3idTYw_I-27" vertex="1">
          <mxGeometry width="230" height="100" as="geometry" />
        </mxCell>
        <mxCell id="nSw_Z0AjLRBM3idTYw_I-29" value="def notify():&lt;br&gt;&lt;span style=&quot;white-space: pre;&quot;&gt;	&lt;/span&gt;for i in self._observers:&lt;br&gt;&lt;span style=&quot;white-space: pre;&quot;&gt;	&lt;/span&gt;&lt;span style=&quot;white-space: pre;&quot;&gt;	&lt;/span&gt;i.update(self)" style="text;html=1;strokeColor=none;fillColor=none;align=left;verticalAlign=middle;whiteSpace=wrap;rounded=0;" parent="nSw_Z0AjLRBM3idTYw_I-27" vertex="1">
          <mxGeometry x="10" y="10" width="180" height="72" as="geometry" />
        </mxCell>
        <mxCell id="nSw_Z0AjLRBM3idTYw_I-30" style="edgeStyle=orthogonalEdgeStyle;rounded=0;orthogonalLoop=1;jettySize=auto;html=1;entryX=-0.011;entryY=0.313;entryDx=0;entryDy=0;entryPerimeter=0;dashed=1;strokeColor=default;strokeWidth=1;endArrow=blockThin;endFill=1;startSize=26;endSize=10;" parent="1" target="nSw_Z0AjLRBM3idTYw_I-4" edge="1">
          <mxGeometry relative="1" as="geometry">
            <mxPoint x="50" y="446" as="sourcePoint" />
            <Array as="points">
              <mxPoint x="30" y="446" />
              <mxPoint x="30" y="186" />
            </Array>
          </mxGeometry>
        </mxCell>
      </root>
    </mxGraphModel>
  </diagram>
</mxfile>
